:SAMPLES-PER-SECOND 30
:FULLY-SPECIFIED
:DEGREES
473
root  69.1472 39.7749 -2.7689 -21.8087 -77.8316 17.4316
RightUpLeg  1.58231 -17.7139 -20.3257
RightLeg  9.95129 -9.22351 1.48669
RightFoot  1.27107 -1.00299 9.13577
RightToes  -1.16417e-010 0 -3.6325e-017
Spine  13.3045 2.57323 2.83773
Spine1  5.57281 3.4844 -1.71746
HEad  -19.8397 6.21531 -0.213321
LeftShoulder1  9.26948 -18.0058 -36.9487
LeftArm  -42.9579 -58.0625 -4.20986
LeftForeArm  18.7464 -37.2092 -7.36615
LeftHand  -0.244104 0.0205437 5.32207
RightShoulder  3.86208 11.3026 19.6564
RightArm  3.58803 63.6696 60.7395
RightForeArm  -22.9639 43.1119 11.8259
RightHand  -2.68454 6.64278 -25.7862
LeftUpLeg  -5.32777 9.9918 -2.01172
LeftLeg  13.086 5.73434 -0.262569
LeftFoot  -1.9783 -0.114794 1.53505
LeftToes  -2.09216e-011 1.96776e-011 -5.83545e-012
474
root  69.1366 39.7433 -2.9529 -17.4324 -74.6404 12.9544
RightUpLeg  2.49535 -18.6391 -20.4921
RightLeg  10.9495 -11.2731 1.14244
RightFoot  0.496857 -0.943249 9.11226
RightToes  -1.16417e-010 0 -3.6325e-017
Spine  13.4696 2.68768 3.80297
Spine1  5.42035 4.03569 -3.027
HEad  -19.7388 4.03856 0.489515
LeftShoulder1  9.31859 -18.3679 -36.4671
LeftArm  -41.9805 -59.4362 -5.35565
LeftForeArm  16.9584 -35.0521 -6.87521
LeftHand  -0.244104 0.0205437 5.32207
RightShoulder  3.97507 11.5377 20.0023
RightArm  5.4294 65.2075 63.022
RightForeArm  -30.8916 37.7661 10.2644
RightHand  -2.50961 6.17278 -25.1225
LeftUpLeg  -5.84787 9.03848 -2.11773
LeftLeg  13.4933 3.35233 -0.302459
LeftFoot  -1.81795 -0.105597 1.37668
LeftToes  -2.09216e-011 1.96776e-011 -5.83545e-012
475
root  69.1007 39.7106 -3.12595 -14.4455 -71.2986 10.0328
RightUpLeg  3.36467 -19.6547 -20.6566
RightLeg  11.8414 -13.3575 0.796201
RightFoot  -0.304076 -0.893454 9.20794
RightToes  -1.16417e-010 0 -3.6325e-017
Spine  13.4821 2.51344 5.41537
Spine1  5.1996 4.66309 -5.72321
HEad  -19.6808 1.16052 1.31099
LeftShoulder1  8.96588 -18.5052 -34.6246
LeftArm  -38.8424 -59.3785 -9.58933
LeftForeArm  16.249 -34.4664 -6.7526
LeftHand  -0.244104 0.0205437 5.32207
RightShoulder  4.35614 12.1302 21.5577
RightArm  6.69545 64.9334 64.0962
RightForeArm  -39.6817 34.1382 9.43746
RightHand  -2.24596 5.56683 -23.7665
LeftUpLeg  -6.51952 7.76094 -2.27577
LeftLeg  13.9109 1.22928 -0.391198
LeftFoot  -1.66852 -0.0994142 1.28451
LeftToes  -2.09216e-011 1.96776e-011 -5.83545e-012
476
root  69.025 39.6775 -3.27302 -12.3503 -67.9461 8.19063
RightUpLeg  4.18799 -20.7527 -20.8924
RightLeg  12.6006 -15.3693 0.512764
RightFoot  -1.14124 -0.855049 9.47288
RightToes  -1.16417e-010 0 -3.6325e-017
Spine  13.1814 3.66537 4.48248
Spine1  5.1223 5.36363 -3.91745
HEad  -18.8179 -2.65648 0.995432
LeftShoulder1  9.83311 -19.1154 -37.3093
LeftArm  -33.2496 -57.3272 -13.427
LeftForeArm  13.1639 -37.6602 -7.83972
LeftHand  -0.244104 0.0205437 5.32207
RightShoulder  4.24026 12.0418 20.9299
RightArm  6.39838 61.4217 64.4114
RightForeArm  -45.4659 34.7007 9.78748
RightHand  -1.55973 3.61056 -20.039
LeftUpLeg  -7.28982 6.13309 -2.51308
LeftLeg  14.3014 -0.472833 -0.489774
LeftFoot  -1.59146 -0.0909224 1.17834
LeftToes  -2.09216e-011 1.96776e-011 -5.83545e-012
477
root  68.9089 39.6496 -3.3848 -10.6785 -64.7128 6.8969
RightUpLeg  4.99555 -21.6938 -21.0753
RightLeg  13.1583 -17.4415 0.276091
RightFoot  -1.88789 -0.820212 9.74015
RightToes  -1.16417e-010 0 -3.6325e-017
Spine  12.9122 3.80479 5.29408
Spine1  5.4829 6.01308 -5.59915
HEad  -18.0613 -5.37425 3.02703
LeftShoulder1  9.94145 -19.1145 -37.7634
LeftArm  -29.4125 -51.778 -18.2203
LeftForeArm  8.19299 -45.9812 -11.095
LeftHand  -0.244104 0.0205437 5.32207
RightShoulder  4.61202 12.4794 22.587
RightArm  7.46198 55.9877 64.3644
RightForeArm  -46.5514 39.7031 11.4772
RightHand  -0.671685 -0.0116242 -14.4054
LeftUpLeg  -8.04689 4.27415 -2.70789
LeftLeg  14.6118 -1.81937 -0.624991
LeftFoot  -1.62837 -0.0700397 0.940054
LeftToes  -2.09216e-011 1.96776e-011 -5.83545e-012
478
root  68.769 39.6262 -3.4627 -9.2856 -61.8538 5.96129
RightUpLeg  5.63196 -22.492 -21.099
RightLeg  13.6094 -19.3251 -0.00196963
RightFoot  -2.5135 -0.785697 9.93203
RightToes  -1.16417e-010 0 -3.6325e-017
Spine  12.8858 3.51276 6.70679
Spine1  6.10187 6.60796 -8.57194
HEad  -18.3523 -7.72771 5.64981
LeftShoulder1  9.75506 -18.3216 -38.5032
LeftArm  -29.0896 -43.0771 -20.9832
LeftForeArm  6.82434 -57.9856 -17.9183
LeftHand  -0.244104 0.0205437 5.32207
RightShoulder  5.38014 13.2757 25.9718
RightArm  11.4588 49.686 64.0927
RightForeArm  -44.1772 46.5078 14.1346
RightHand  -0.152407 -3.516 -9.03753
LeftUpLeg  -8.76791 2.53709 -2.79441
LeftLeg  14.8726 -2.93816 -0.809794
LeftFoot  -1.77269 -0.0375357 0.576151
LeftToes  -2.09216e-011 1.96776e-011 -5.83545e-012
479
root  68.6272 39.5933 -3.51343 -8.28201 -59.6434 5.41708
RightUpLeg  5.94228 -23.6613 -21.0979
RightLeg  14.2282 -20.1985 -0.440888
RightFoot  -3.15569 -0.752981 10.1977
RightToes  -1.16417e-010 0 -3.6325e-017
Spine  13.3204 3.91506 7.14361
Spine1  6.63806 7.45421 -9.74808
HEad  -19.6474 -11.0396 7.15506
LeftShoulder1  9.84705 -17.093 -41.4541
LeftArm  -30.8868 -32.7884 -20.7837
LeftForeArm  16.2902 -69.3351 -30.4035
LeftHand  -0.244104 0.0205437 5.32207
RightShoulder  6.11616 13.9363 29.061
RightArm  16.7865 42.9914 63.8024
RightForeArm  -40.0766 51.8635 16.7354
RightHand  -0.02861 -5.23757 -4.38254
LeftUpLeg  -9.46093 1.25156 -2.83798
LeftLeg  15.2485 -3.81235 -0.997435
LeftFoot  -2.04956 -0.00536292 0.21799
LeftToes  -2.09216e-011 1.96776e-011 -5.83545e-012
480
root  68.5014 39.5392 -3.54389 -7.5804 -58.0817 5.1042
RightUpLeg  5.92857 -25.7526 -21.1946
RightLeg  15.1841 -19.4901 -1.09795
RightFoot  -3.89022 -0.714614 10.5389
RightToes  -1.16417e-010 0 -3.6325e-017
Spine  14.1909 4.63239 8.25525
Spine1  7.36461 8.99042 -11.7757
HEad  -21.4891 -15.3067 9.31413
LeftShoulder1  9.71772 -16.0691 -43.1674
LeftArm  -33.1236 -22.1493 -20.1217
LeftForeArm  37.4669 -76.2725 -50.2361
LeftHand  -0.244104 0.0205437 5.32207
RightShoulder  6.85098 14.5784 31.9224
RightArm  21.0347 36.7965 63.6497
RightForeArm  -36.0039 54.3431 18.1358
RightHand  -0.033253 -5.86185 0.464333
LeftUpLeg  -10.1711 0.397876 -2.85603
LeftLeg  15.9043 -4.3806 -1.15248
LeftFoot  -2.51153 0.0182068 -0.0385058
LeftToes  -2.09216e-011 1.96776e-011 -5.83545e-012
